<svg xmlns="http://www.w3.org/2000/svg" xmlns:xlink="http://www.w3.org/1999/xlink" fill="none" version="1.1" width="20" height="20" viewBox="0 0 20 20"><g><g></g><g><path d="M11.71998,3.18802L12.9938,6.37832L16.290100000000002,6.65367C17.317,6.73925,18.0748,7.66575,17.9941,8.71616C17.9559,9.21733,17.7273,9.68323,17.3574,10.01401L14.832,12.2674L15.6047,15.6423C15.8392,16.6655,15.2294,17.6984,14.2305,17.9466C13.9918,18.0059,13.7439,18.0159,13.5013,17.976100000000002C13.2587,17.9362,13.0264,17.8473,12.8178,17.714399999999998L10,15.9217L7.18184,17.714399999999998C6.97278,17.8473,6.73994,17.9362,6.49691,17.976C6.25388,18.0157,6.00555,18.0055,5.76643,17.9459C5.52731,17.8863,5.3021899999999995,17.7786,5.104229999999999,17.6289C4.90627,17.479300000000002,4.73945,17.2908,4.6135,17.0744C4.3616600000000005,16.644199999999998,4.28341,16.130499999999998,4.39532,15.6423L5.1680399999999995,12.2674L2.642614,10.01401C2.271893,9.68179,2.0431731,9.21413,2.00551254,8.71135C1.967852,8.20856,2.124251,7.7107,2.441161,7.32455C2.5988059999999997,7.13243,2.792096,6.9742,3.0098599999999998,6.85898C3.22763,6.74377,3.46555,6.67386,3.70988,6.65329L7.00621,6.37795L8.28002,3.18802C8.67201,2.206813,9.76582,1.736863,10.72072,2.150255C11.1747,2.3475260000000002,11.53394,2.720608,11.71998,3.18802ZM10.20425,3.34326L10.20262,3.3425599999999998Q10.00092,3.25593,9.79935,3.34192Q9.58127,3.43494,9.48732,3.67012L8.21351,6.86005Q8.18009,6.94375,8.13543,7.02204Q8.090779999999999,7.10033,8.03574,7.17171Q7.98071,7.24309,7.91635,7.30619Q7.85199,7.3693,7.77954,7.42291Q7.7071,7.47653,7.62794,7.51964Q7.54878,7.56274,7.46444,7.59451Q7.38009,7.62628,7.29217,7.64611Q7.20424,7.66593,7.11442,7.67344L3.81891,7.94871Q3.71318,7.95761,3.61782,8.00807Q3.51906,8.06032,3.4460800000000003,8.14926Q3.28202,8.34915,3.3018799999999997,8.614239999999999Q3.3215500000000002,8.876809999999999,3.50812,9.04401L6.03355,11.29739Q6.16374,11.41356,6.25869,11.55994Q6.35364,11.70632,6.40664,11.87256Q6.45963,12.0388,6.46691,12.2131Q6.47419,12.3875,6.43525,12.5575L5.662459999999999,15.9327Q5.60311,16.1917,5.737019999999999,16.4204Q5.79649,16.5226,5.88813,16.591900000000003Q5.976179999999999,16.6584,6.08076,16.6845Q6.18318,16.71,6.28709,16.692999999999998Q6.39248,16.675800000000002,6.48408,16.6175L9.302240000000001,14.8248Q9.38006,14.7753,9.46408,14.7373Q9.5481,14.6993,9.63666,14.6735Q9.72521,14.6477,9.816510000000001,14.6347Q9.90781,14.6217,10.00004,14.6217Q10.09226,14.6217,10.18357,14.6347Q10.27487,14.6477,10.36342,14.6735Q10.45197,14.6993,10.53599,14.7373Q10.62001,14.7754,10.69782,14.8249L13.5161,16.6179Q13.6074,16.676099999999998,13.7121,16.6933Q13.8153,16.7102,13.917,16.685000000000002Q14.1383,16.630000000000003,14.2627,16.4208Q14.3974,16.1941,14.3375,15.9324L13.5647,12.5575Q13.5258,12.3875,13.5331,12.2131Q13.5404,12.0388,13.5934,11.87256Q13.6464,11.70632,13.7413,11.55994Q13.8363,11.41356,13.9664,11.29739L16.4908,9.04493Q16.678,8.87757,16.6979,8.61655Q16.7185,8.349260000000001,16.554000000000002,8.14958Q16.4042,7.96768,16.1819,7.94915L12.8856,7.67381Q12.7958,7.66631,12.7078,7.64648Q12.6199,7.62665,12.5356,7.59488Q12.4512,7.56311,12.372,7.52Q12.2929,7.47689,12.2204,7.42327Q12.148,7.36965,12.0836,7.30655Q12.0193,7.24344,11.96423,7.17206Q11.9092,7.10067,11.86455,7.02238Q11.81989,6.94408,11.78647,6.86037L10.51215,3.6687700000000003Q10.42022,3.43783,10.20425,3.34326Z" fill-rule="evenodd" fill="#737F93" fill-opacity="1"/></g></g></svg>