<svg xmlns="http://www.w3.org/2000/svg" xmlns:xlink="http://www.w3.org/1999/xlink" fill="none" version="1.1" width="16" height="16" viewBox="0 0 16 16"><defs><clipPath id="master_svg0_161_66231"><rect x="0" y="0" width="16" height="16" rx="0"/></clipPath></defs><g clip-path="url(#master_svg0_161_66231)"><g><path d="M12.3360458984375,13.912002563476562L4.9920458984375,13.912002563476562C4.7040458984375,13.912002563476562,4.4720458984375,14.144002563476562,4.4720458984375,14.432002563476562C4.4720458984375,14.720001563476563,4.7040458984375,14.952002563476562,4.9920458984375,14.952002563476562L12.3360458984375,14.952002563476562C12.6240458984375,14.952002563476562,12.8560458984375,14.720002563476562,12.8560458984375,14.432002563476562C12.8560458984375,14.144001563476563,12.6240458984375,13.912001609802562,12.3360458984375,13.912002563476562Z" fill="#737F93" fill-opacity="1"/></g><g><path d="M11.431975234375,6.127995454101563C12.496015234375,4.279995454101563,12.672015234375,1.7039954541015625,12.680015234375,1.5999954541015624C12.696015234375,1.4079954541015625,12.592015234375,1.2159954541015625,12.424015234375,1.1199954541015624C12.256015234375,1.0239955541015624,12.047975234375,1.0239955541015624,11.879975234375,1.1279954541015624C11.495975234375,1.3759954541015624,8.111975234374999,3.5679954541015624,7.383975234375,4.807995454101563C6.319975234375,6.599995454101562,3.703975234375,11.383965454101563,3.679975234375,11.431965454101562C3.655975234375,11.471965454101563,3.647975234375,11.511965454101562,3.631975234375,11.551965454101563L2.199974334375,14.031965454101563C2.055974234375,14.279965454101562,2.143974334375,14.599965454101563,2.391974234375,14.743965454101563C2.471974234375,14.791965454101563,2.559974234375,14.815965454101562,2.647974234375,14.815965454101562C2.823974234375,14.815965454101562,2.999974234375,14.719965454101562,3.095974234375,14.551965454101563L4.559975234375,12.023965454101562C5.471975234375,11.399965454101563,10.359975234375,7.991995454101563,11.431975234375,6.127995454101563ZM8.279975234375,5.327995454101562C8.639975234375001,4.7119954541015625,10.191975234375,3.5279954541015623,11.503975234375,2.6239954541015624C11.359975234375,3.4719954541015623,11.071975234375,4.6639954541015625,10.535975234375,5.607995454101562C9.911975234375,6.6799954541015625,7.551975234375,8.575995454101562,5.687975234375,9.951995454101562C6.535975234375,8.407995454101563,7.663975234375,6.367995454101562,8.279975234375,5.327995454101562Z" fill="#737F93" fill-opacity="1"/></g></g></svg>