<svg width="20" height="20" viewBox="0 0 20 20" fill="none" xmlns="http://www.w3.org/2000/svg">
<path d="M5 3.65H14.7857C16.0836 3.65 17.1357 4.70213 17.1357 6V14.5714C17.1357 15.8693 16.0836 16.9214 14.7857 16.9214H5C3.70213 16.9214 2.65 15.8693 2.65 14.5714V6C2.65 4.70213 3.70213 3.65 5 3.65Z" stroke="#737F93" stroke-width="1.3"/>
<path d="M14.7072 7.85707C14.7072 8.50403 14.1827 9.0285 13.5358 9.0285C12.8888 9.0285 12.3644 8.50403 12.3644 7.85707C12.3644 7.21011 12.8888 6.68564 13.5358 6.68564C14.1827 6.68564 14.7072 7.21011 14.7072 7.85707Z" stroke="#737F93" stroke-width="1.3"/>
<path d="M2.60718 14.0919C3.01717 13.7797 4.36803 12.0866 5.53586 10.7653C6.00663 10.2326 6.84347 10.4014 7.10803 11.0612L8.71426 15.0671C8.99949 15.7784 9.94603 15.9177 10.4241 15.3187L11.246 14.2887C11.6432 13.7909 12.3983 13.7863 12.8016 14.2792L14.75 16.6606" stroke="#737F93" stroke-width="1.3" stroke-linecap="round"/>
</svg>
