<svg width="20" height="20" viewBox="0 0 20 20" fill="none" xmlns="http://www.w3.org/2000/svg">
<g id="Group 29">
<g id="Group 28">
<path id="Ellipse 65" d="M7.61079 17.1918L7.48306 17.134H7.34286C7.06045 17.134 6.6462 17.2039 6.22295 17.2902C5.7804 17.3803 5.26498 17.5022 4.75015 17.6304C4.06943 17.7998 3.72498 17.6425 3.58617 17.4959C3.44956 17.3516 3.31236 17.0055 3.52655 16.3406C3.67801 15.8705 3.82094 15.4137 3.92514 15.046C3.97706 14.8628 4.02156 14.6941 4.05286 14.5531C4.07801 14.4399 4.11432 14.2645 4.10623 14.1119L4.09857 13.9673L4.03029 13.8397C3.45958 12.7728 3.13571 11.5538 3.13571 10.2571C3.13571 6.05583 6.54155 2.65 10.7429 2.65C14.9442 2.65 18.35 6.05583 18.35 10.2571C18.35 14.4585 14.9442 17.8643 10.7429 17.8643C9.62501 17.8643 8.56514 17.6236 7.61079 17.1918Z" stroke="#737F93" stroke-width="1.3"/>
<path id="a" d="M10.7603 6.43555C9.91714 6.43555 9.25074 6.59875 8.73394 6.92515C8.16274 7.27875 7.79554 7.83635 7.64594 8.57075L8.72034 8.65235C8.82914 8.20355 9.06034 7.86355 9.42754 7.64595C9.75394 7.42835 10.1755 7.33315 10.6923 7.33315C11.9163 7.33315 12.5283 7.91795 12.5283 9.10115V9.46835L10.8419 9.49555C9.78114 9.50915 8.96514 9.71315 8.39394 10.0939C7.74114 10.5019 7.42834 11.1003 7.42834 11.9027C7.42834 12.4739 7.64594 12.9499 8.08114 13.3171C8.50274 13.6707 9.06034 13.8475 9.76754 13.8475C10.4203 13.8475 11.0051 13.6979 11.5219 13.4123C11.9571 13.1675 12.3243 12.8547 12.5963 12.4739V13.6571H13.6163V9.14195C13.6163 8.32595 13.3987 7.68675 12.9907 7.22435C12.5011 6.69395 11.7667 6.43555 10.7603 6.43555ZM12.5283 10.2843V10.8827C12.5283 11.4267 12.2699 11.9163 11.7667 12.3379C11.2499 12.7731 10.6651 12.9907 9.99874 12.9907C9.56355 12.9907 9.20994 12.8819 8.93794 12.6779C8.66594 12.4603 8.54354 12.2019 8.54354 11.8755C8.54354 10.8555 9.33234 10.3387 10.9099 10.3115L12.5283 10.2843Z" fill="#737F93"/>
</g>
</g>
</svg>
