<svg width="20" height="20" viewBox="0 0 20 20" fill="none" xmlns="http://www.w3.org/2000/svg">
<g id="Group 50">
<path id="Vector" d="M11.1161 3.42839L11.1163 3.42904L12.3901 6.61935C12.4815 6.84809 12.6942 7.00556 12.9397 7.02606L16.236 7.30141L16.2361 7.30142C16.887 7.35566 17.4009 7.95198 17.346 8.66636L17.346 8.66673C17.3204 9.00281 17.1673 9.31187 16.9244 9.52918C16.9243 9.52928 16.9242 9.52937 16.9241 9.52947L14.3992 11.7824C14.2224 11.9401 14.1455 12.1815 14.1984 12.4125L14.9711 15.7873L14.9711 15.7875C15.1305 16.4827 14.7117 17.1573 14.0738 17.3158C13.9207 17.3538 13.762 17.3602 13.6067 17.3347C13.4514 17.3091 13.3019 17.2521 13.1669 17.1662L13.1667 17.166L10.3489 15.3733C10.136 15.2378 9.86401 15.2378 9.65112 15.3733L6.83316 17.1659C6.8331 17.1659 6.83303 17.1659 6.83296 17.166C6.69764 17.252 6.54772 17.309 6.392 17.3345C6.23622 17.36 6.07706 17.3534 5.92359 17.3152C5.7701 17.2769 5.62474 17.2076 5.49618 17.1104C5.36759 17.0132 5.25826 16.89 5.17526 16.7474L5.17447 16.7461C5.00669 16.4594 4.95376 16.1153 5.02889 15.7875L5.02893 15.7873L5.80165 12.4125C5.85452 12.1815 5.77757 11.9401 5.6008 11.7824L3.07641 9.52995C3.07625 9.5298 3.07609 9.52966 3.07593 9.52951C2.83229 9.31094 2.67898 9.00034 2.6537 8.66279C2.62839 8.32494 2.73382 7.99254 2.94362 7.7369L2.94364 7.73688C3.04703 7.61088 3.17303 7.50802 3.31384 7.43353C3.45449 7.35911 3.60746 7.31427 3.76398 7.30104C3.76402 7.30104 3.76405 7.30103 3.76408 7.30103C3.76419 7.30102 3.76429 7.30101 3.76439 7.301L7.06032 7.02569C7.30576 7.00519 7.51852 6.84773 7.60986 6.619L8.88363 3.42916C8.88364 3.42913 8.88366 3.4291 8.88367 3.42907C9.14539 2.7741 9.85714 2.48496 10.4621 2.74659C10.7556 2.87426 10.9924 3.11769 11.1161 3.42839Z" stroke="white" stroke-width="1.3" stroke-linejoin="round"/>
</g>
</svg>
