<svg width="20" height="20" viewBox="0 0 20 20" fill="none" xmlns="http://www.w3.org/2000/svg">
<g id="Group 58">
<g id="Group 40">
<g id="Group 8">
<rect id="Rectangle 3" x="2.65" y="2.65" width="14.7" height="14.7" rx="3.35" stroke="white" stroke-width="1.3"/>
</g>
</g>
<path id="Vector" d="M9.87726 11.7282V11.2282H9.37726H7.58506C7.546 11.2254 7.51875 11.2102 7.50594 11.1984C7.51875 11.1866 7.546 11.1715 7.58506 11.1687H9.37726H9.87726V10.6687V9.72787V9.22787H9.37726H7.58506C7.546 9.22501 7.51875 9.20989 7.50594 9.19809C7.51875 9.18628 7.546 9.17117 7.58506 9.1683H9.09543H9.56024H10.4116H10.8765H12.3767H12.3861L12.3955 9.16795C12.4167 9.16716 12.437 9.17027 12.4545 9.17614C12.472 9.182 12.4844 9.18976 12.492 9.19625C12.4927 9.19689 12.4934 9.1975 12.4941 9.19809C12.4934 9.19868 12.4927 9.19929 12.492 9.19992C12.4844 9.20641 12.472 9.21417 12.4545 9.22004C12.437 9.22591 12.4167 9.22902 12.3955 9.22823L12.3861 9.22787H12.3767H10.5721H10.0721V9.72787V10.6687V11.1687H10.5721H12.3767H12.3861L12.3955 11.1683C12.4167 11.1675 12.437 11.1706 12.4545 11.1765C12.472 11.1824 12.4844 11.1901 12.492 11.1966C12.4927 11.1972 12.4934 11.1979 12.4941 11.1984C12.4934 11.199 12.4927 11.1996 12.492 11.2003C12.4844 11.2068 12.472 11.2145 12.4545 11.2204C12.437 11.2263 12.4167 11.2294 12.3955 11.2286L12.3861 11.2282H12.3767H10.5721H10.0721V11.7282V13.4473V13.4592L10.0723 13.4637C10.0712 13.4652 10.0694 13.4672 10.0668 13.4696C10.0603 13.4757 10.0491 13.4835 10.0324 13.4898C10.0157 13.4961 9.99594 13.5 9.97469 13.5C9.95345 13.5 9.93365 13.4961 9.91697 13.4898C9.90031 13.4835 9.88912 13.4757 9.88256 13.4696C9.87994 13.4672 9.87818 13.4652 9.87705 13.4637L9.87726 13.4592V13.4473V11.7282ZM10.5445 8.29441L9.98594 8.79033L9.4274 8.29441L8.56364 7.5275C8.57859 7.5149 8.60921 7.5 8.65124 7.5C8.6945 7.5 8.72566 7.51578 8.74011 7.52859L9.65399 8.33995L9.98594 8.63466L10.3179 8.33995L11.2318 7.52859C11.2318 7.52858 11.2318 7.52856 11.2318 7.52855C11.2384 7.5227 11.2494 7.51537 11.2654 7.50949C11.2815 7.50359 11.3004 7.5 11.3206 7.5C11.3409 7.5 11.3598 7.50359 11.3759 7.50949C11.3909 7.51502 11.4015 7.52184 11.4083 7.5275L10.5445 8.29441Z" stroke="white"/>
</g>
</svg>
