<svg width="20" height="20" viewBox="0 0 20 20" fill="none" xmlns="http://www.w3.org/2000/svg">
<path fill-rule="evenodd" clip-rule="evenodd" d="M9.35744 2.23513C9.87997 1.92162 10.5327 1.92162 11.0553 2.23514L16.6116 5.56893C17.6797 6.20979 17.6797 7.75779 16.6116 8.39865L11.0553 11.7325C10.5327 12.046 9.87996 12.046 9.35743 11.7325L3.80108 8.39865C2.73297 7.75778 2.73298 6.20979 3.80109 5.56893L9.35744 2.23513ZM10.3864 3.34988C10.2756 3.28337 10.1371 3.28337 10.0263 3.34988L4.46993 6.68367C4.24336 6.81961 4.24336 7.14797 4.46993 7.28391L10.0263 10.6177C10.1371 10.6842 10.2756 10.6842 10.3864 10.6177L15.9428 7.28391C16.1693 7.14797 16.1693 6.81961 15.9428 6.68367L10.3864 3.34988Z" fill="white"/>
<path fill-rule="evenodd" clip-rule="evenodd" d="M3.15279 10.2923C3.34093 9.98661 3.7413 9.89128 4.04703 10.0794L9.49883 13.4344C9.93273 13.7014 10.48 13.7014 10.9139 13.4344L16.3657 10.0794C16.6714 9.89128 17.0718 9.98661 17.2599 10.2923C17.4481 10.5981 17.3528 10.9984 17.047 11.1866L11.5952 14.5415C10.7435 15.0657 9.66924 15.0657 8.81751 14.5415L3.3657 11.1866C3.05997 10.9984 2.96464 10.5981 3.15279 10.2923Z" fill="white"/>
<path fill-rule="evenodd" clip-rule="evenodd" d="M3.15279 13.4027C3.34093 13.097 3.7413 13.0016 4.04703 13.1898L9.49883 16.5447C9.93273 16.8117 10.48 16.8117 10.9139 16.5447L16.3657 13.1898C16.6714 13.0016 17.0718 13.097 17.2599 13.4027C17.4481 13.7084 17.3528 14.1088 17.047 14.2969L11.5952 17.6519C10.7435 18.176 9.66924 18.176 8.81751 17.6519L3.3657 14.2969C3.05997 14.1088 2.96464 13.7084 3.15279 13.4027Z" fill="white"/>
</svg>
