<svg xmlns="http://www.w3.org/2000/svg" xmlns:xlink="http://www.w3.org/1999/xlink" fill="none" version="1.1" width="20" height="20" viewBox="0 0 20 20"><g style="mix-blend-mode:passthrough"><g style="mix-blend-mode:passthrough"></g><g style="mix-blend-mode:passthrough"><g style="mix-blend-mode:passthrough"><path d="M4.98505,18C3.880477,18,3,17.1239,3,16.0193L3,6.1436C3,5.30738,3.514317,4.54087,4.29831,4.249969999999999L10.39369,1.988276C11.70012,1.503523,13.0571,2.46543,13.0571,3.8589L13.0571,6.80488L18.1374,10.34937C18.6735,10.72343,19,11.3497,19,12.0034L19,15.9899C19,17.0945,18.0979,18,16.993299999999998,18L4.98505,18ZM12.40714,16.7L12.40714,7.93651L12.31329,7.87103Q12.18451,7.78118,12.08083,7.66326Q11.97715,7.54534,11.90454,7.40612Q11.83191,7.26691,11.79453,7.1144Q11.75714,6.9619,11.75714,6.80488L11.75714,3.8589Q11.75714,3.48669,11.4666,3.28199Q11.18283,3.08207,10.84593,3.20708L4.7505500000000005,5.46877Q4.3,5.63595,4.3,6.1436L4.3,16.0193Q4.3,16.3077,4.4961400000000005,16.5032Q4.69351,16.7,4.98504,16.7L12.40714,16.7ZM13.7071,8.84352L13.7071,16.7L16.993299999999998,16.7Q17.2821,16.7,17.4906,16.491Q17.7,16.281100000000002,17.7,15.9899L17.7,12.0034Q17.7,11.6293,17.3935,11.4155L13.7071,8.84352Z" fill-rule="evenodd" fill="#737F93" fill-opacity="1"/></g><g style="mix-blend-mode:passthrough"><path d="M7.35,17L7.35,13Q7.35,12.9359806,7.36249,12.873191Q7.374979,12.810402,7.399478,12.751256Q7.423978,12.69211,7.459545,12.638879Q7.495112,12.585649,7.540381,12.540381Q7.585649,12.495112,7.638879,12.459545Q7.69211,12.423978,7.751256,12.399478Q7.810402,12.374979,7.873191,12.36249Q7.9359806,12.35,8,12.35Q8.0640194,12.35,8.126809,12.36249Q8.189598,12.374979,8.248744,12.399478Q8.30789,12.423978,8.361121,12.459545Q8.414351,12.495112,8.459619,12.540381Q8.504888,12.585649,8.540455,12.638879Q8.576022,12.69211,8.600522,12.751256Q8.625021,12.810402,8.63751,12.873191Q8.65,12.9359806,8.65,13L8.65,17Q8.65,17.06402,8.63751,17.12681Q8.625021,17.1896,8.600522,17.248739999999998Q8.576022,17.30789,8.540455,17.36112Q8.504888,17.41435,8.459619,17.45962Q8.414351,17.50489,8.361121,17.54045Q8.30789,17.57602,8.248744,17.60052Q8.189598,17.62502,8.126809,17.63751Q8.0640194,17.65,8,17.65Q7.9359806,17.65,7.873191,17.63751Q7.810402,17.62502,7.751256,17.60052Q7.69211,17.57602,7.638879,17.54045Q7.585649,17.50489,7.540381,17.45962Q7.495112,17.41435,7.459545,17.36112Q7.423978,17.30789,7.399478,17.248739999999998Q7.374979,17.1896,7.36249,17.12681Q7.35,17.06402,7.35,17ZM8.65,17Q8.65,17.06402,8.63751,17.12681Q8.625021,17.1896,8.600522,17.248739999999998Q8.576022,17.30789,8.540455,17.36112Q8.504888,17.41435,8.459619,17.45962Q8.414351,17.50489,8.361121,17.54045Q8.30789,17.57602,8.248744,17.60052Q8.189598,17.62502,8.126809,17.63751Q8.0640194,17.65,8,17.65Q7.9359806,17.65,7.873191,17.63751Q7.810402,17.62502,7.751256,17.60052Q7.69211,17.57602,7.638879,17.54045Q7.585649,17.50489,7.540381,17.45962Q7.495112,17.41435,7.459545,17.36112Q7.423978,17.30789,7.399478,17.248739999999998Q7.374979,17.1896,7.36249,17.12681Q7.35,17.06402,7.35,17Q7.35,16.93598,7.36249,16.87319Q7.374979,16.8104,7.399478,16.75126Q7.423978,16.69211,7.459545,16.63888Q7.495112,16.58565,7.540381,16.54038Q7.585649,16.49511,7.638879,16.45954Q7.69211,16.42398,7.751256,16.39948Q7.810402,16.37498,7.873191,16.36249Q7.9359806,16.35,8,16.35Q8.0640194,16.35,8.126809,16.36249Q8.189598,16.37498,8.248744,16.39948Q8.30789,16.42398,8.361121,16.45954Q8.414351,16.49511,8.459619,16.54038Q8.504888,16.58565,8.540455,16.63888Q8.576022,16.69211,8.600522,16.75126Q8.625021,16.8104,8.63751,16.87319Q8.65,16.93598,8.65,17ZM8.65,13Q8.65,13.0640194,8.63751,13.126809Q8.625021,13.189598,8.600522,13.248744Q8.576022,13.30789,8.540455,13.361121Q8.504888,13.414351,8.459619,13.459619Q8.414351,13.504888,8.361121,13.540455Q8.30789,13.576022,8.248744,13.600522Q8.189598,13.625021,8.126809,13.63751Q8.0640194,13.65,8,13.65Q7.9359806,13.65,7.873191,13.63751Q7.810402,13.625021,7.751256,13.600522Q7.69211,13.576022,7.638879,13.540455Q7.585649,13.504888,7.540381,13.459619Q7.495112,13.414351,7.459545,13.361121Q7.423978,13.30789,7.399478,13.248744Q7.374979,13.189598,7.36249,13.126809Q7.35,13.0640194,7.35,13Q7.35,12.9359806,7.36249,12.873191Q7.374979,12.810402,7.399478,12.751256Q7.423978,12.69211,7.459545,12.638879Q7.495112,12.585649,7.540381,12.540381Q7.585649,12.495112,7.638879,12.459545Q7.69211,12.423978,7.751256,12.399478Q7.810402,12.374979,7.873191,12.36249Q7.9359806,12.35,8,12.35Q8.0640194,12.35,8.126809,12.36249Q8.189598,12.374979,8.248744,12.399478Q8.30789,12.423978,8.361121,12.459545Q8.414351,12.495112,8.459619,12.540381Q8.504888,12.585649,8.540455,12.638879Q8.576022,12.69211,8.600522,12.751256Q8.625021,12.810402,8.63751,12.873191Q8.65,12.9359806,8.65,13Z" fill="#737F93" fill-opacity="1"/></g></g></g></svg>