<svg width="20" height="20" viewBox="0 0 20 20" fill="none" xmlns="http://www.w3.org/2000/svg">
<path d="M3.3647 5.27549L9.30672 2.10641C9.72514 1.88326 10.23 1.896 10.6366 2.13997L16.6946 5.77477C17.1012 6.01874 17.35 6.45818 17.35 6.93238V13.201C17.35 13.6752 17.1012 14.1146 16.6946 14.3586L10.6366 17.9934C10.23 18.2373 9.72514 18.2501 9.30673 18.0269L3.36471 14.8578C2.92479 14.6232 2.65 14.1652 2.65 13.6667V6.46667C2.65 5.9681 2.92479 5.51011 3.3647 5.27549Z" stroke="white" stroke-width="1.3" stroke-linecap="round" stroke-linejoin="round"/>
<path d="M4.66669 6.8667L9.02901 9.48409C9.63142 9.84554 10 10.4966 10 11.1991V15.9334" stroke="white" stroke-width="1.3" stroke-linecap="round" stroke-linejoin="round"/>
<path d="M15.3333 6.8667L10 10.0667" stroke="white" stroke-width="1.3" stroke-linecap="round" stroke-linejoin="round"/>
</svg>
