<svg width="20" height="20" viewBox="0 0 20 20" fill="none" xmlns="http://www.w3.org/2000/svg">
<g id="Group 33">
<g id="Group 32">
<path id="Vector 18" d="M7 10.5H10.5" stroke="#737F93" stroke-width="1.3" stroke-linecap="round" stroke-linejoin="round"/>
<path id="Vector 17" d="M7 6H13" stroke="#737F93" stroke-width="1.3" stroke-linecap="round" stroke-linejoin="round"/>
<path id="Vector 16" d="M10.9634 15.9876L10.9634 15.9876C10.4772 15.3676 9.54688 15.3432 9.02876 15.9367L8.67667 16.34C8.03221 17.0782 6.84876 16.9454 6.38394 16.0827C6.02506 15.4166 5.13586 15.265 4.57646 15.7744L3.20457 17.0238C2.99175 17.2176 2.65 17.0667 2.65 16.7788V6C2.65 4.14985 4.14985 2.65 6 2.65H10H14C15.8502 2.65 17.35 4.14985 17.35 6V16.7233C17.35 16.9523 17.0699 17.0634 16.9129 16.8966L15.989 15.9149C15.4408 15.3324 14.5076 15.3871 14.0215 16.0068C13.249 16.9918 11.7542 16.9958 10.9903 16.0219C10.9903 16.0219 10.9903 16.0219 10.9903 16.0219L10.9634 15.9876Z" stroke="#737F93" stroke-width="1.3" stroke-linecap="round" stroke-linejoin="round"/>
</g>
</g>
</svg>
