<svg width="20" height="20" viewBox="0 0 20 20" fill="none" xmlns="http://www.w3.org/2000/svg">
<g id="&#229;&#133;&#168;&#229;&#177;&#128;_&#232;&#191;&#144;&#232;&#144;&#165; 2">
<g id="Group 30">
<g id="Vector">
<mask id="path-1-inside-1_12_10915" fill="white">
<path d="M4.67284 4.99704C5.45974 5.01858 6.0835 5.67743 6.06196 6.46434C6.04043 7.25124 5.38157 7.87499 4.59467 7.85346C4.21607 7.84253 3.85725 7.68194 3.59686 7.4069C3.33647 7.13185 3.19575 6.76479 3.20554 6.38616C3.22708 5.59926 3.88486 4.97548 4.67284 4.99704ZM4.70214 3.92642C4.03955 3.90814 3.39685 4.15383 2.91541 4.60942C2.43396 5.06502 2.15323 5.69321 2.13495 6.35579C2.11668 7.01838 2.36236 7.66108 2.81796 8.14252C3.27355 8.62397 3.90174 8.9047 4.56432 8.92298C5.22691 8.94125 5.86962 8.69557 6.35106 8.23997C6.8325 7.78438 7.11324 7.15619 7.13151 6.49361C7.14979 5.83102 6.9041 5.18831 6.44851 4.70687C5.99291 4.22543 5.36472 3.94469 4.70214 3.92642ZM15.6692 5.29798C16.4572 5.31955 17.0809 5.9784 17.0594 6.76531C17.0378 7.55221 16.379 8.17596 15.591 8.1544C15.2124 8.14347 14.8536 7.98288 14.5932 7.70784C14.3328 7.43279 14.1921 7.06573 14.2019 6.6871C14.2234 5.9002 14.8812 5.27642 15.6692 5.29798ZM15.6985 4.22736C15.3703 4.21838 15.0436 4.27412 14.737 4.3914C14.4304 4.50868 14.1499 4.68521 13.9115 4.91089C13.6731 5.13658 13.4815 5.40701 13.3477 5.70675C13.2138 6.00648 13.1403 6.32965 13.1313 6.6578C13.1223 6.98595 13.178 7.31266 13.2953 7.61927C13.4126 7.92588 13.5891 8.20638 13.8148 8.44477C14.0405 8.68316 14.3109 8.87476 14.6107 9.00864C14.9104 9.14251 15.2336 9.21604 15.5617 9.22502C16.2244 9.24316 16.8672 8.99728 17.3487 8.54149C17.8301 8.08569 18.1108 7.45731 18.1289 6.79458C18.1471 6.13185 17.9012 5.48905 17.4454 5.00761C16.9896 4.52616 16.3612 4.2455 15.6985 4.22736ZM9.90672 14.7852C10.2735 14.8127 10.6155 14.9803 10.862 15.2533C11.1084 15.5263 11.2403 15.8836 11.2302 16.2513C11.2201 16.6189 11.0689 16.9685 10.8079 17.2276C10.5469 17.4867 10.1962 17.6354 9.82852 17.6427C9.44992 17.6318 9.0911 17.4712 8.83071 17.1962C8.57032 16.9211 8.4296 16.554 8.43939 16.1754C8.45032 15.7967 8.61088 15.4378 8.8859 15.1772C9.16092 14.9167 9.52799 14.7757 9.90672 14.7852ZM9.93602 13.7146C9.27315 13.6965 8.63022 13.9424 8.14867 14.3983C7.66712 14.8542 7.38639 15.4827 7.36825 16.1456C7.35011 16.8084 7.59604 17.4514 8.05193 17.9329C8.50783 18.4145 9.13634 18.6952 9.79922 18.7133C10.1273 18.7223 10.454 18.6666 10.7605 18.5493C11.0671 18.432 11.3475 18.2554 11.5858 18.0297C11.8241 17.804 12.0156 17.5336 12.1494 17.2338C12.2831 16.9341 12.3565 16.611 12.3654 16.2829C12.3748 15.9546 12.3194 15.6278 12.2023 15.321C12.0853 15.0142 11.9089 14.7335 11.6832 14.495C11.4576 14.2564 11.1871 14.0647 10.8873 13.9308C10.5875 13.7969 10.2643 13.7234 9.93602 13.7146Z"/>
</mask>
<path d="M4.59467 7.85346L4.55716 9.15292L4.5591 9.15297L4.59467 7.85346ZM3.20554 6.38616L1.90603 6.3506L1.90598 6.35254L3.20554 6.38616ZM15.591 8.1544L15.5535 9.45386L15.5555 9.45391L15.591 8.1544ZM14.2019 6.6871L12.9024 6.65154L12.9023 6.65348L14.2019 6.6871ZM15.6985 4.22736L15.6629 5.52687L15.6985 4.22736ZM15.5617 9.22502L15.5973 7.92551L15.5617 9.22502ZM18.1289 6.79458L19.4284 6.83014L18.1289 6.79458ZM9.90672 14.7852L10.0038 13.4889L9.97163 13.4864L9.93937 13.4856L9.90672 14.7852ZM11.2302 16.2513L12.5297 16.2868L11.2302 16.2513ZM9.82852 17.6427L9.79101 18.9422L9.82278 18.9431L9.85456 18.9425L9.82852 17.6427ZM8.43939 16.1754L7.13993 16.1379L7.13983 16.1418L8.43939 16.1754ZM9.93602 13.7146L9.90046 15.0141L9.90101 15.0141L9.93602 13.7146ZM7.36825 16.1456L6.06874 16.11L7.36825 16.1456ZM9.79922 18.7133L9.83478 17.4138L9.83478 17.4138L9.79922 18.7133ZM12.3654 16.2829L11.0659 16.2456L11.0658 16.2479L12.3654 16.2829ZM4.63727 6.29655C4.70648 6.29845 4.76434 6.35957 4.76245 6.42877L7.36147 6.4999C7.40265 4.99529 6.21301 3.7387 4.7084 3.69753L4.63727 6.29655ZM4.76245 6.42877C4.76055 6.49798 4.69943 6.55584 4.63023 6.55394L4.5591 9.15297C6.06371 9.19415 7.3203 8.00451 7.36147 6.4999L4.76245 6.42877ZM4.63217 6.554C4.59754 6.553 4.56472 6.53831 4.5409 6.51315L2.65282 8.30065C3.14978 8.82558 3.8346 9.13206 4.55716 9.15292L4.63217 6.554ZM4.5409 6.51315C4.51708 6.48799 4.50421 6.45442 4.50511 6.41978L1.90598 6.35254C1.88728 7.07516 2.15585 7.77571 2.65282 8.30065L4.5409 6.51315ZM4.50506 6.42173C4.50697 6.35189 4.56763 6.29465 4.63727 6.29655L4.7084 3.69753C3.20209 3.6563 1.94719 4.84662 1.90603 6.3506L4.50506 6.42173ZM4.73798 2.62691C3.73075 2.59913 2.75373 2.97261 2.02186 3.66519L3.80895 5.55366C4.03996 5.33504 4.34836 5.21716 4.6663 5.22592L4.73798 2.62691ZM2.02186 3.66519C1.28999 4.35777 0.863227 5.31271 0.835445 6.31995L3.43446 6.39163C3.44323 6.0737 3.57794 5.77227 3.80895 5.55366L2.02186 3.66519ZM0.835445 6.31995C0.807664 7.32718 1.18114 8.3042 1.87372 9.03607L3.76219 7.24898C3.54358 7.01797 3.42569 6.70957 3.43446 6.39163L0.835445 6.31995ZM1.87372 9.03607C2.5663 9.76794 3.52125 10.1947 4.52848 10.2225L4.60017 7.62347C4.28223 7.6147 3.9808 7.48 3.76219 7.24898L1.87372 9.03607ZM4.52848 10.2225C5.53572 10.2503 6.51274 9.87679 7.2446 9.18421L5.45751 7.29574C5.2265 7.51435 4.9181 7.63224 4.60017 7.62347L4.52848 10.2225ZM7.2446 9.18421C7.97647 8.49163 8.40324 7.53668 8.43102 6.52945L5.83201 6.45776C5.82324 6.7757 5.68853 7.07713 5.45751 7.29574L7.2446 9.18421ZM8.43102 6.52945C8.4588 5.52221 8.08532 4.5452 7.39274 3.81333L5.50427 5.60042C5.72289 5.83143 5.84077 6.13983 5.83201 6.45776L8.43102 6.52945ZM7.39274 3.81333C6.70016 3.08146 5.74522 2.65469 4.73798 2.62691L4.6663 5.22592C4.98423 5.23469 5.28566 5.3694 5.50427 5.60042L7.39274 3.81333ZM15.6336 6.59749C15.7045 6.59943 15.7617 6.66117 15.7599 6.72974L18.3589 6.80087C18.4001 5.29563 17.2098 4.03966 15.7048 3.99847L15.6336 6.59749ZM15.7599 6.72974C15.758 6.79831 15.6975 6.85683 15.6266 6.85489L15.5555 9.45391C17.0605 9.4951 18.3177 8.30611 18.3589 6.80087L15.7599 6.72974ZM15.6285 6.85494C15.5939 6.85394 15.5611 6.83925 15.5373 6.81409L13.6492 8.60159C14.1461 9.12652 14.8309 9.433 15.5535 9.45386L15.6285 6.85494ZM15.5373 6.81409C15.5134 6.78893 15.5006 6.75536 15.5015 6.72072L12.9023 6.65348C12.8836 7.3761 13.1522 8.07666 13.6492 8.60159L15.5373 6.81409ZM15.5014 6.72267C15.5033 6.65283 15.564 6.59559 15.6336 6.59749L15.7048 3.99847C14.1984 3.95724 12.9435 5.14757 12.9024 6.65154L15.5014 6.72267ZM15.7341 2.92785C15.2352 2.9142 14.7386 2.99893 14.2726 3.1772L15.2015 5.60561C15.3486 5.54932 15.5054 5.52256 15.6629 5.52687L15.7341 2.92785ZM14.2726 3.1772C13.8065 3.35547 13.3801 3.62379 13.0178 3.96685L14.8053 5.85494C14.9197 5.74662 15.0543 5.66189 15.2015 5.60561L14.2726 3.1772ZM13.0178 3.96685C12.6554 4.30991 12.3642 4.72098 12.1607 5.17659L14.5346 6.23691C14.5989 6.09305 14.6909 5.96326 14.8053 5.85494L13.0178 3.96685ZM12.1607 5.17659C11.9572 5.6322 11.8454 6.12343 11.8318 6.62224L14.4308 6.69337C14.4351 6.53587 14.4704 6.38076 14.5346 6.23691L12.1607 5.17659ZM11.8318 6.62224C11.8181 7.12104 11.9028 7.61765 12.0811 8.08372L14.5095 7.15482C14.4532 7.00767 14.4265 6.85087 14.4308 6.69337L11.8318 6.62224ZM12.0811 8.08372C12.2594 8.54978 12.5277 8.97616 12.8708 9.33852L14.7588 7.55103C14.6505 7.43661 14.5658 7.30198 14.5095 7.15482L12.0811 8.08372ZM12.8708 9.33852C13.2138 9.70088 13.6249 9.99212 14.0805 10.1956L15.1408 7.82165C14.997 7.7574 14.8672 7.66544 14.7588 7.55103L12.8708 9.33852ZM14.0805 10.1956C14.5361 10.3991 15.0273 10.5109 15.5262 10.5245L15.5973 7.92551C15.4398 7.9212 15.2847 7.88591 15.1408 7.82165L14.0805 10.1956ZM15.5262 10.5245C16.5335 10.5521 17.5106 10.1784 18.2424 9.48553L16.4549 7.59744C16.2239 7.8162 15.9154 7.93421 15.5973 7.92551L15.5262 10.5245ZM18.2424 9.48553C18.9743 8.7927 19.4009 7.83752 19.4284 6.83014L16.8294 6.75901C16.8207 7.07709 16.686 7.37868 16.4549 7.59744L18.2424 9.48553ZM19.4284 6.83014C19.456 5.82276 19.0823 4.84568 18.3894 4.11386L16.5014 5.90135C16.7201 6.13242 16.8381 6.44093 16.8294 6.75901L19.4284 6.83014ZM18.3894 4.11386C17.6966 3.38204 16.7414 2.95542 15.7341 2.92785L15.6629 5.52687C15.981 5.53558 16.2826 5.67028 16.5014 5.90135L18.3894 4.11386ZM9.80963 16.0816C9.84318 16.0841 9.87447 16.0994 9.89701 16.1244L11.8269 14.3822C11.3566 13.8612 10.7037 13.5413 10.0038 13.4889L9.80963 16.0816ZM9.89701 16.1244C9.91955 16.1494 9.93161 16.1821 9.93069 16.2157L12.5297 16.2868C12.5489 15.5852 12.2972 14.9031 11.8269 14.3822L9.89701 16.1244ZM9.93069 16.2157C9.92977 16.2493 9.91594 16.2813 9.89207 16.305L11.7238 18.1502C12.2219 17.6557 12.5105 16.9884 12.5297 16.2868L9.93069 16.2157ZM9.89207 16.305C9.86819 16.3287 9.83611 16.3423 9.80248 16.343L9.85456 18.9425C10.5563 18.9284 11.2257 18.6447 11.7238 18.1502L9.89207 16.305ZM9.86603 16.3433C9.8314 16.3423 9.79857 16.3276 9.77475 16.3024L7.88667 18.0899C8.38363 18.6148 9.06845 18.9213 9.79101 18.9422L9.86603 16.3433ZM9.77475 16.3024C9.75094 16.2773 9.73806 16.2437 9.73896 16.209L7.13983 16.1418C7.12114 16.8644 7.3897 17.565 7.88667 18.0899L9.77475 16.3024ZM9.73885 16.2129C9.73986 16.178 9.75466 16.145 9.78 16.1209L7.9918 14.2335C7.4671 14.7306 7.16079 15.4154 7.13994 16.1379L9.73885 16.2129ZM9.78 16.1209C9.80534 16.0969 9.83917 16.0839 9.87407 16.0848L9.93937 13.4856C9.2168 13.4675 8.51649 13.7364 7.9918 14.2335L9.78 16.1209ZM9.97158 12.4151C8.96406 12.3875 7.98684 12.7613 7.25492 13.4542L9.04241 15.3423C9.27359 15.1235 9.58224 15.0054 9.90046 15.0141L9.97158 12.4151ZM7.25492 13.4542C6.52299 14.1472 6.09631 15.1025 6.06874 16.11L8.66777 16.1811C8.67648 15.8629 8.81124 15.5612 9.04241 15.3423L7.25492 13.4542ZM6.06874 16.11C6.04117 17.1175 6.41496 18.0947 7.10789 18.8267L8.99598 17.0392C8.77712 16.808 8.65906 16.4994 8.66777 16.1811L6.06874 16.11ZM7.10789 18.8267C7.80082 19.5586 8.75613 19.9853 9.76365 20.0129L9.83478 17.4138C9.51656 17.4051 9.21483 17.2704 8.99598 17.0392L7.10789 18.8267ZM9.76365 20.0129C10.2625 20.0265 10.7591 19.9417 11.2251 19.7634L10.2959 17.3351C10.1489 17.3914 9.99218 17.4181 9.83478 17.4138L9.76365 20.0129ZM11.2251 19.7634C11.6911 19.5851 12.1175 19.3167 12.4798 18.9736L10.6919 17.0859C10.5775 17.1942 10.443 17.2788 10.2959 17.3351L11.2251 19.7634ZM12.4798 18.9736C12.842 18.6304 13.1332 18.2193 13.3365 17.7636L10.9622 16.7041C10.898 16.8479 10.8062 16.9776 10.6919 17.0859L12.4798 18.9736ZM13.3365 17.7636C13.5399 17.308 13.6515 16.8167 13.6649 16.3179L11.0658 16.2479C11.0616 16.4053 11.0264 16.5603 10.9622 16.7041L13.3365 17.7636ZM13.6648 16.3201C13.6791 15.821 13.5949 15.3241 13.4169 14.8576L10.9877 15.7844C11.0438 15.9315 11.0704 16.0882 11.0659 16.2456L13.6648 16.3201ZM13.4169 14.8576C13.2389 14.3911 12.9707 13.9644 12.6277 13.6016L10.7388 15.3883C10.847 15.5027 10.9316 15.6373 10.9877 15.7844L13.4169 14.8576ZM12.6277 13.6016C12.2846 13.2389 11.8733 12.9475 11.4175 12.7438L10.3572 15.1178C10.5009 15.182 10.6306 15.274 10.7388 15.3883L12.6277 13.6016ZM11.4175 12.7438C10.9616 12.5402 10.4701 12.4285 9.97103 12.4151L9.90101 15.0141C10.0584 15.0184 10.2134 15.0536 10.3572 15.1178L11.4175 12.7438Z" fill="white" mask="url(#path-1-inside-1_12_10915)"/>
</g>
<path id="Vector_2" d="M5.85356 16.032C5.733 16.0321 5.61597 15.9913 5.52155 15.9163C4.66632 15.244 3.97537 14.3857 3.50107 13.4067C3.02676 12.4277 2.78155 11.3535 2.78401 10.2656C2.78401 9.54804 2.89005 8.83902 3.09782 8.15999C3.13958 8.02422 3.23356 7.91059 3.3591 7.8441C3.48463 7.77762 3.63144 7.76373 3.76721 7.80549C3.90299 7.84724 4.01662 7.94122 4.0831 8.06676C4.14959 8.19229 4.16348 8.3391 4.12172 8.47487C3.94432 9.05522 3.85443 9.65877 3.85504 10.2656C3.85504 12.1496 4.70436 13.9039 6.18665 15.0777C6.27345 15.1469 6.3366 15.2413 6.36738 15.348C6.39817 15.4546 6.39505 15.5682 6.35848 15.673C6.3219 15.7778 6.25367 15.8686 6.16321 15.9329C6.07276 15.9972 5.96456 16.0319 5.85356 16.032ZM12.2326 17.0741C12.107 17.073 11.9859 17.0279 11.8902 16.9467C11.7944 16.8655 11.7302 16.7532 11.7087 16.6296C11.6872 16.5059 11.7097 16.3786 11.7723 16.2698C11.835 16.161 11.9338 16.0776 12.0516 16.0341C13.239 15.6063 14.2659 14.823 14.9924 13.7909C15.7189 12.7587 16.1097 11.5278 16.1118 10.2656C16.1118 10.1236 16.1682 9.98739 16.2687 9.88696C16.3691 9.78653 16.5053 9.73011 16.6473 9.73011C16.7894 9.73011 16.9256 9.78653 17.026 9.88696C17.1264 9.98739 17.1828 10.1236 17.1828 10.2656C17.1805 11.7484 16.7214 13.1945 15.8681 14.4072C15.0147 15.6198 13.8085 16.5402 12.4136 17.0431C12.3553 17.0632 12.2942 17.0737 12.2326 17.0741ZM14.1947 5.55848C14.0712 5.55869 13.9516 5.5159 13.8562 5.43746C12.2122 4.09546 9.87097 3.70775 7.896 4.42427C7.76426 4.46508 7.62186 4.45359 7.49836 4.39219C7.37486 4.33079 7.27974 4.2242 7.23275 4.09453C7.18576 3.96486 7.19051 3.82207 7.246 3.69581C7.3015 3.56955 7.40348 3.4695 7.53079 3.41644C9.85276 2.57354 12.6031 3.0298 14.5342 4.60741C14.6195 4.67757 14.6811 4.77235 14.7106 4.87882C14.74 4.98529 14.7359 5.09826 14.6988 5.2023C14.6616 5.30634 14.5933 5.39638 14.5031 5.46013C14.4129 5.52388 14.3052 5.55822 14.1947 5.55848Z" fill="white" stroke="white" stroke-width="0.3"/>
</g>
</g>
</svg>
