<svg width="20" height="20" viewBox="0 0 20 20" fill="none" xmlns="http://www.w3.org/2000/svg">
<g id="&#229;&#133;&#168;&#229;&#177;&#128;_&#232;&#191;&#144;&#232;&#144;&#165; 1">
<g id="Group 30">
<g id="Vector">
<mask id="path-1-inside-1_12_10828" fill="white">
<path d="M4.67278 4.99704C5.45968 5.01858 6.08344 5.67743 6.0619 6.46434C6.04036 7.25124 5.38151 7.87499 4.5946 7.85346C4.21601 7.84253 3.85719 7.68194 3.5968 7.4069C3.33641 7.13185 3.19569 6.76479 3.20548 6.38616C3.22702 5.59926 3.8848 4.97548 4.67278 4.99704ZM4.70208 3.92642C4.03949 3.90814 3.39679 4.15383 2.91534 4.60942C2.4339 5.06502 2.15317 5.69321 2.13489 6.35579C2.11661 7.01838 2.3623 7.66108 2.81789 8.14252C3.27349 8.62397 3.90168 8.9047 4.56426 8.92298C5.22685 8.94125 5.86956 8.69557 6.351 8.23997C6.83244 7.78438 7.11317 7.15619 7.13145 6.49361C7.14973 5.83102 6.90404 5.18831 6.44845 4.70687C5.99285 4.22543 5.36466 3.94469 4.70208 3.92642ZM15.6691 5.29798C16.4571 5.31955 17.0809 5.9784 17.0593 6.76531C17.0378 7.55221 16.3789 8.17596 15.591 8.1544C15.2124 8.14347 14.8535 7.98288 14.5932 7.70784C14.3328 7.43279 14.192 7.06573 14.2018 6.6871C14.2234 5.9002 14.8812 5.27642 15.6691 5.29798ZM15.6984 4.22736C15.3703 4.21838 15.0436 4.27412 14.737 4.3914C14.4304 4.50868 14.1498 4.68521 13.9115 4.91089C13.6731 5.13658 13.4815 5.40701 13.3476 5.70675C13.2137 6.00648 13.1402 6.32965 13.1312 6.6578C13.1222 6.98595 13.178 7.31266 13.2953 7.61927C13.4125 7.92588 13.5891 8.20638 13.8147 8.44477C14.0404 8.68316 14.3109 8.87476 14.6106 9.00864C14.9103 9.14251 15.2335 9.21604 15.5617 9.22502C16.2244 9.24316 16.8672 8.99728 17.3486 8.54149C17.8301 8.08569 18.1107 7.45731 18.1289 6.79458C18.147 6.13185 17.9011 5.48905 17.4453 5.00761C16.9895 4.52616 16.3612 4.2455 15.6984 4.22736ZM9.90666 14.7852C10.2734 14.8127 10.6155 14.9803 10.8619 15.2533C11.1083 15.5263 11.2402 15.8836 11.2301 16.2513C11.2201 16.6189 11.0689 16.9685 10.8079 17.2276C10.5469 17.4867 10.1961 17.6354 9.82846 17.6427C9.44986 17.6318 9.09104 17.4712 8.83065 17.1962C8.57026 16.9211 8.42954 16.554 8.43933 16.1754C8.45026 15.7967 8.61082 15.4378 8.88584 15.1772C9.16086 14.9167 9.52793 14.7757 9.90666 14.7852ZM9.93596 13.7146C9.27309 13.6965 8.63016 13.9424 8.14861 14.3983C7.66706 14.8542 7.38633 15.4827 7.36819 16.1456C7.35005 16.8084 7.59598 17.4514 8.05187 17.9329C8.50777 18.4145 9.13628 18.6952 9.79916 18.7133C10.1273 18.7223 10.4539 18.6666 10.7605 18.5493C11.067 18.432 11.3474 18.2554 11.5857 18.0297C11.8241 17.804 12.0156 17.5336 12.1493 17.2338C12.2831 16.9341 12.3565 16.611 12.3653 16.2829C12.3747 15.9546 12.3193 15.6278 12.2023 15.321C12.0852 15.0142 11.9088 14.7335 11.6832 14.495C11.4575 14.2564 11.1871 14.0647 10.8873 13.9308C10.5875 13.7969 10.2642 13.7234 9.93596 13.7146Z"/>
</mask>
<path d="M4.5946 7.85346L4.5571 9.15292L4.55904 9.15297L4.5946 7.85346ZM3.20548 6.38616L1.90597 6.3506L1.90592 6.35254L3.20548 6.38616ZM15.591 8.1544L15.5534 9.45386L15.5554 9.45391L15.591 8.1544ZM14.2018 6.6871L12.9023 6.65154L12.9023 6.65348L14.2018 6.6871ZM15.6984 4.22736L15.6629 5.52687L15.6984 4.22736ZM15.5617 9.22502L15.5972 7.92551L15.5617 9.22502ZM18.1289 6.79458L19.4284 6.83014L18.1289 6.79458ZM9.90666 14.7852L10.0037 13.4889L9.97157 13.4864L9.93931 13.4856L9.90666 14.7852ZM11.2301 16.2513L12.5297 16.2868L11.2301 16.2513ZM9.82846 17.6427L9.79095 18.9422L9.82272 18.9431L9.85449 18.9425L9.82846 17.6427ZM8.43933 16.1754L7.13987 16.1379L7.13977 16.1418L8.43933 16.1754ZM9.93596 13.7146L9.90039 15.0141L9.90095 15.0141L9.93596 13.7146ZM7.36819 16.1456L6.06868 16.11L7.36819 16.1456ZM9.79916 18.7133L9.83472 17.4138L9.83472 17.4138L9.79916 18.7133ZM12.3653 16.2829L11.0658 16.2456L11.0658 16.2479L12.3653 16.2829ZM4.63721 6.29655C4.70642 6.29845 4.76428 6.35957 4.76239 6.42877L7.36141 6.4999C7.40259 4.99529 6.21295 3.7387 4.70834 3.69753L4.63721 6.29655ZM4.76239 6.42877C4.76049 6.49798 4.69937 6.55584 4.63017 6.55394L4.55904 9.15297C6.06365 9.19415 7.32024 8.00451 7.36141 6.4999L4.76239 6.42877ZM4.63211 6.554C4.59748 6.553 4.56466 6.53831 4.54084 6.51315L2.65276 8.30065C3.14972 8.82558 3.83454 9.13206 4.5571 9.15292L4.63211 6.554ZM4.54084 6.51315C4.51702 6.48799 4.50415 6.45442 4.50505 6.41978L1.90592 6.35254C1.88722 7.07516 2.15579 7.77571 2.65276 8.30065L4.54084 6.51315ZM4.505 6.42173C4.50691 6.35189 4.56757 6.29465 4.63721 6.29655L4.70834 3.69753C3.20203 3.6563 1.94713 4.84662 1.90597 6.3506L4.505 6.42173ZM4.73792 2.62691C3.73068 2.59913 2.75367 2.97261 2.0218 3.66519L3.80889 5.55366C4.0399 5.33504 4.3483 5.21716 4.66623 5.22592L4.73792 2.62691ZM2.0218 3.66519C1.28993 4.35777 0.863166 5.31271 0.835384 6.31995L3.4344 6.39163C3.44317 6.0737 3.57787 5.77227 3.80889 5.55366L2.0218 3.66519ZM0.835384 6.31995C0.807603 7.32718 1.18108 8.3042 1.87366 9.03607L3.76213 7.24898C3.54352 7.01797 3.42563 6.70957 3.4344 6.39163L0.835384 6.31995ZM1.87366 9.03607C2.56624 9.76794 3.52118 10.1947 4.52842 10.2225L4.60011 7.62347C4.28217 7.6147 3.98074 7.48 3.76213 7.24898L1.87366 9.03607ZM4.52842 10.2225C5.53566 10.2503 6.51267 9.87679 7.24454 9.18421L5.45745 7.29574C5.22644 7.51435 4.91804 7.63224 4.60011 7.62347L4.52842 10.2225ZM7.24454 9.18421C7.97641 8.49163 8.40317 7.53668 8.43096 6.52945L5.83194 6.45776C5.82318 6.7757 5.68847 7.07713 5.45745 7.29574L7.24454 9.18421ZM8.43096 6.52945C8.45874 5.52221 8.08526 4.5452 7.39268 3.81333L5.50421 5.60042C5.72282 5.83143 5.84071 6.13983 5.83194 6.45776L8.43096 6.52945ZM7.39268 3.81333C6.7001 3.08146 5.74516 2.65469 4.73792 2.62691L4.66623 5.22592C4.98417 5.23469 5.2856 5.3694 5.50421 5.60042L7.39268 3.81333ZM15.6336 6.59749C15.7045 6.59943 15.7617 6.66117 15.7598 6.72974L18.3588 6.80087C18.4 5.29563 17.2097 4.03966 15.7047 3.99847L15.6336 6.59749ZM15.7598 6.72974C15.7579 6.79831 15.6974 6.85683 15.6265 6.85489L15.5554 9.45391C17.0604 9.4951 18.3176 8.30611 18.3588 6.80087L15.7598 6.72974ZM15.6285 6.85494C15.5938 6.85394 15.561 6.83925 15.5372 6.81409L13.6491 8.60159C14.1461 9.12652 14.8309 9.433 15.5534 9.45386L15.6285 6.85494ZM15.5372 6.81409C15.5134 6.78893 15.5005 6.75536 15.5014 6.72072L12.9023 6.65348C12.8836 7.3761 13.1521 8.07666 13.6491 8.60159L15.5372 6.81409ZM15.5013 6.72267C15.5033 6.65283 15.5639 6.59559 15.6336 6.59749L15.7047 3.99847C14.1984 3.95724 12.9435 5.14757 12.9023 6.65154L15.5013 6.72267ZM15.734 2.92785C15.2352 2.9142 14.7386 2.99893 14.2725 3.1772L15.2014 5.60561C15.3486 5.54932 15.5054 5.52256 15.6629 5.52687L15.734 2.92785ZM14.2725 3.1772C13.8065 3.35547 13.3801 3.62379 13.0177 3.96685L14.8052 5.85494C14.9196 5.74662 15.0542 5.66189 15.2014 5.60561L14.2725 3.1772ZM13.0177 3.96685C12.6554 4.30991 12.3641 4.72098 12.1606 5.17659L14.5346 6.23691C14.5988 6.09305 14.6908 5.96326 14.8052 5.85494L13.0177 3.96685ZM12.1606 5.17659C11.9571 5.6322 11.8453 6.12343 11.8317 6.62224L14.4307 6.69337C14.435 6.53587 14.4703 6.38076 14.5346 6.23691L12.1606 5.17659ZM11.8317 6.62224C11.818 7.12104 11.9028 7.61765 12.081 8.08372L14.5095 7.15482C14.4532 7.00767 14.4264 6.85087 14.4307 6.69337L11.8317 6.62224ZM12.081 8.08372C12.2593 8.54978 12.5276 8.97616 12.8707 9.33852L14.7588 7.55103C14.6505 7.43661 14.5657 7.30198 14.5095 7.15482L12.081 8.08372ZM12.8707 9.33852C13.2138 9.70088 13.6248 9.99212 14.0804 10.1956L15.1408 7.82165C14.9969 7.7574 14.8671 7.66544 14.7588 7.55103L12.8707 9.33852ZM14.0804 10.1956C14.5361 10.3991 15.0273 10.5109 15.5261 10.5245L15.5972 7.92551C15.4397 7.9212 15.2846 7.88591 15.1408 7.82165L14.0804 10.1956ZM15.5261 10.5245C16.5335 10.5521 17.5106 10.1784 18.2424 9.48553L16.4549 7.59744C16.2238 7.8162 15.9153 7.93421 15.5972 7.92551L15.5261 10.5245ZM18.2424 9.48553C18.9742 8.7927 19.4008 7.83752 19.4284 6.83014L16.8294 6.75901C16.8207 7.07709 16.6859 7.37868 16.4549 7.59744L18.2424 9.48553ZM19.4284 6.83014C19.456 5.82276 19.0822 4.84568 18.3894 4.11386L16.5013 5.90135C16.7201 6.13242 16.8381 6.44093 16.8294 6.75901L19.4284 6.83014ZM18.3894 4.11386C17.6965 3.38204 16.7414 2.95542 15.734 2.92785L15.6629 5.52687C15.9809 5.53558 16.2825 5.67028 16.5013 5.90135L18.3894 4.11386ZM9.80957 16.0816C9.84312 16.0841 9.87441 16.0994 9.89695 16.1244L11.8269 14.3822C11.3565 13.8612 10.7037 13.5413 10.0037 13.4889L9.80957 16.0816ZM9.89695 16.1244C9.91949 16.1494 9.93155 16.1821 9.93063 16.2157L12.5297 16.2868C12.5489 15.5852 12.2972 14.9031 11.8269 14.3822L9.89695 16.1244ZM9.93063 16.2157C9.92971 16.2493 9.91588 16.2813 9.89201 16.305L11.7237 18.1502C12.2219 17.6557 12.5105 16.9884 12.5297 16.2868L9.93063 16.2157ZM9.89201 16.305C9.86813 16.3287 9.83605 16.3423 9.80242 16.343L9.85449 18.9425C10.5562 18.9284 11.2256 18.6447 11.7237 18.1502L9.89201 16.305ZM9.86596 16.3433C9.83133 16.3423 9.79851 16.3276 9.77469 16.3024L7.88661 18.0899C8.38357 18.6148 9.06839 18.9213 9.79095 18.9422L9.86596 16.3433ZM9.77469 16.3024C9.75088 16.2773 9.738 16.2437 9.7389 16.209L7.13977 16.1418C7.12107 16.8644 7.38964 17.565 7.88661 18.0899L9.77469 16.3024ZM9.73879 16.2129C9.7398 16.178 9.75459 16.145 9.77994 16.1209L7.99174 14.2335C7.46704 14.7306 7.16073 15.4154 7.13988 16.1379L9.73879 16.2129ZM9.77994 16.1209C9.80528 16.0969 9.83911 16.0839 9.87401 16.0848L9.93931 13.4856C9.21674 13.4675 8.51643 13.7364 7.99174 14.2335L9.77994 16.1209ZM9.97152 12.4151C8.964 12.3875 7.98678 12.7613 7.25486 13.4542L9.04235 15.3423C9.27353 15.1235 9.58217 15.0054 9.90039 15.0141L9.97152 12.4151ZM7.25486 13.4542C6.52293 14.1472 6.09625 15.1025 6.06868 16.11L8.66771 16.1811C8.67641 15.8629 8.81118 15.5612 9.04235 15.3423L7.25486 13.4542ZM6.06868 16.11C6.04111 17.1175 6.4149 18.0947 7.10783 18.8267L8.99592 17.0392C8.77706 16.808 8.659 16.4994 8.66771 16.1811L6.06868 16.11ZM7.10783 18.8267C7.80076 19.5586 8.75607 19.9853 9.76359 20.0129L9.83472 17.4138C9.5165 17.4051 9.21477 17.2704 8.99592 17.0392L7.10783 18.8267ZM9.76359 20.0129C10.2624 20.0265 10.759 19.9417 11.225 19.7634L10.2959 17.3351C10.1488 17.3914 9.99212 17.4181 9.83472 17.4138L9.76359 20.0129ZM11.225 19.7634C11.6911 19.5851 12.1174 19.3167 12.4797 18.9736L10.6918 17.0859C10.5775 17.1942 10.4429 17.2788 10.2959 17.3351L11.225 19.7634ZM12.4797 18.9736C12.842 18.6304 13.1331 18.2193 13.3365 17.7636L10.9622 16.7041C10.898 16.8479 10.8061 16.9776 10.6918 17.0859L12.4797 18.9736ZM13.3365 17.7636C13.5398 17.308 13.6514 16.8167 13.6648 16.3179L11.0658 16.2479C11.0615 16.4053 11.0263 16.5603 10.9622 16.7041L13.3365 17.7636ZM13.6648 16.3201C13.6791 15.821 13.5948 15.3241 13.4169 14.8576L10.9877 15.7844C11.0438 15.9315 11.0703 16.0882 11.0658 16.2456L13.6648 16.3201ZM13.4169 14.8576C13.2389 14.3911 12.9707 13.9644 12.6276 13.6016L10.7388 15.3883C10.847 15.5027 10.9315 15.6373 10.9877 15.7844L13.4169 14.8576ZM12.6276 13.6016C12.2845 13.2389 11.8733 12.9475 11.4174 12.7438L10.3571 15.1178C10.5009 15.182 10.6306 15.274 10.7388 15.3883L12.6276 13.6016ZM11.4174 12.7438C10.9616 12.5402 10.47 12.4285 9.97096 12.4151L9.90095 15.0141C10.0583 15.0184 10.2134 15.0536 10.3571 15.1178L11.4174 12.7438Z" fill="#737F93" mask="url(#path-1-inside-1_12_10828)"/>
</g>
<path id="Vector_2" d="M5.8535 16.032C5.73294 16.0321 5.6159 15.9913 5.52149 15.9163C4.66626 15.244 3.97531 14.3857 3.50101 13.4067C3.0267 12.4277 2.78149 11.3535 2.78395 10.2656C2.78395 9.54804 2.88999 8.83902 3.09776 8.15999C3.13952 8.02422 3.2335 7.91059 3.35904 7.8441C3.48457 7.77762 3.63138 7.76373 3.76715 7.80549C3.90293 7.84724 4.01656 7.94122 4.08304 8.06676C4.14952 8.19229 4.16342 8.3391 4.12166 8.47487C3.94425 9.05522 3.85437 9.65877 3.85498 10.2656C3.85498 12.1496 4.7043 13.9039 6.18659 15.0777C6.27339 15.1469 6.33654 15.2413 6.36732 15.348C6.39811 15.4546 6.39499 15.5682 6.35842 15.673C6.32184 15.7778 6.25361 15.8686 6.16315 15.9329C6.0727 15.9972 5.96449 16.0319 5.8535 16.032ZM12.2325 17.0741C12.107 17.073 11.9858 17.0279 11.8901 16.9467C11.7944 16.8655 11.7302 16.7532 11.7086 16.6296C11.6871 16.5059 11.7096 16.3786 11.7723 16.2698C11.8349 16.161 11.9337 16.0776 12.0515 16.0341C13.239 15.6063 14.2658 14.823 14.9923 13.7909C15.7188 12.7587 16.1097 11.5278 16.1118 10.2656C16.1118 10.1236 16.1682 9.98739 16.2686 9.88696C16.369 9.78653 16.5052 9.73011 16.6473 9.73011C16.7893 9.73011 16.9255 9.78653 17.0259 9.88696C17.1264 9.98739 17.1828 10.1236 17.1828 10.2656C17.1804 11.7484 16.7213 13.1945 15.868 14.4072C15.0146 15.6198 13.8085 16.5402 12.4135 17.0431C12.3553 17.0632 12.2941 17.0737 12.2325 17.0741ZM14.1946 5.55848C14.0712 5.55869 13.9515 5.5159 13.8562 5.43746C12.2122 4.09546 9.87091 3.70775 7.89594 4.42427C7.7642 4.46508 7.6218 4.45359 7.4983 4.39219C7.3748 4.33079 7.27968 4.2242 7.23269 4.09453C7.1857 3.96486 7.19045 3.82207 7.24594 3.69581C7.30144 3.56955 7.40342 3.4695 7.53072 3.41644C9.8527 2.57354 12.6031 3.0298 14.5341 4.60741C14.6195 4.67757 14.6811 4.77235 14.7105 4.87882C14.74 4.98529 14.7359 5.09826 14.6987 5.2023C14.6616 5.30634 14.5932 5.39638 14.503 5.46013C14.4128 5.52388 14.3051 5.55822 14.1946 5.55848Z" fill="#737F93" stroke="#737F93" stroke-width="0.3"/>
</g>
</g>
</svg>
