<svg width="20" height="20" viewBox="0 0 20 20" fill="none" xmlns="http://www.w3.org/2000/svg">
<path d="M2.65 9.6471C2.65 8.90151 3.25442 8.29709 4 8.29709H4.70588C5.45147 8.29709 6.05588 8.90151 6.05588 9.64709V16C6.05588 16.7456 5.45147 17.35 4.70588 17.35H4C3.25442 17.35 2.65 16.7456 2.65 16V9.6471Z" stroke="white" stroke-width="1.3"/>
<path d="M13.9441 13.4117C13.9441 12.6662 14.5485 12.0617 15.2941 12.0617H15.9999C16.7455 12.0617 17.3499 12.6662 17.3499 13.4117V16C17.3499 16.7456 16.7455 17.35 15.9999 17.35H15.2941C14.5485 17.35 13.9441 16.7456 13.9441 16V13.4117Z" stroke="white" stroke-width="1.3"/>
<path d="M8.29709 4C8.29709 3.25442 8.90151 2.65 9.64709 2.65H10.353C11.0986 2.65 11.703 3.25442 11.703 4V16C11.703 16.7456 11.0986 17.35 10.353 17.35H9.6471C8.90151 17.35 8.29709 16.7456 8.29709 16V4Z" stroke="white" stroke-width="1.3"/>
</svg>
