<svg xmlns="http://www.w3.org/2000/svg" xmlns:xlink="http://www.w3.org/1999/xlink" fill="none" version="1.1" width="20" height="20" viewBox="0 0 20 20"><defs><clipPath id="master_svg0_161_64103"><rect x="0" y="0" width="20" height="20" rx="0"/></clipPath></defs><g style="mix-blend-mode:passthrough" clip-path="url(#master_svg0_161_64103)"><g style="mix-blend-mode:passthrough"><path d="M15,1.250000000782394C15.1647,1.24999176642,15.3227,1.3149811,15.4397,1.430843C15.5568,1.546705,15.6234,1.704075,15.625,1.86875C15.625,1.86875,15.625,3.75,15.625,3.75C15.625,3.75,16.875,3.75,16.875,3.75C17.22,3.75,17.5,4.0275,17.5,4.375C17.5,4.375,17.5,5,17.5,5C17.5,5,2.5,5,2.5,5C2.5,5,2.5,2.4987500000000002,2.5,2.4987500000000002C2.5,1.8087499999999999,3.0612500000000002,1.250000000782394,3.74375,1.250000000782394C3.74375,1.250000000782394,15,1.250000000782394,15,1.250000000782394ZM14.375,2.5C14.375,2.5,4.37063,2.5,4.37063,2.5C4.20547,2.50066,4.0473300000000005,2.56686,3.93096,2.68405C3.81459,2.80125,3.7495000000000003,2.95984,3.75,3.125C3.75,3.4725,4.02813,3.75,4.37063,3.75C4.37063,3.75,14.375,3.75,14.375,3.75C14.375,3.75,14.375,2.5,14.375,2.5ZM2.5,5C2.5,5,17.5,5,17.5,5C17.5,5,17.5,17.5056,17.5,17.5056C17.5,18.1931,16.9394,18.75,16.2469,18.75C16.2469,18.75,3.75313,18.75,3.75313,18.75C3.58911,18.7507,3.426581,18.719,3.274818,18.6568C3.123056,18.5946,2.985039,18.5031,2.868659,18.3875C2.752279,18.272,2.659818,18.1346,2.5965607,17.9833C2.5333037,17.8319,2.500491458,17.6696,2.5,17.5056C2.5,17.5056,2.5,5,2.5,5ZM3.75,5C3.75,5,3.75,16.880000000000003,3.75,16.880000000000003C3.75131,17.044,3.81705,17.201,3.93304,17.317C4.04903,17.433,4.20597,17.4987,4.37,17.5C4.37,17.5,15.63,17.5,15.63,17.5C15.794,17.4987,15.951,17.433,16.067,17.317C16.183,17.201,16.2487,17.044,16.25,16.880000000000003C16.25,16.880000000000003,16.25,5,16.25,5C16.25,5,3.75,5,3.75,5Z" fill="#737F93" fill-opacity="1"/></g><g style="mix-blend-mode:passthrough"><path d="M5.643111706265625,11.23813C5.642700382265625,11.31837,5.658108572265625,11.3979,5.688454872265625,11.47218C5.718801172265625,11.54647,5.763490572265625,11.61404,5.819968572265625,11.67104C5.876446572265625,11.72804,5.943604572265625,11.77335,6.017604572265625,11.80438C6.091604572265625,11.83541,6.170994572265625,11.85155,6.251236572265625,11.85187L10.044986572265625,11.85187C10.125176572265625,11.85146,10.203876572265624,11.83527,10.277796572265625,11.8042C10.351726572265626,11.77313,10.418816572265625,11.72781,10.475226572265626,11.670819999999999C10.531636572265626,11.61383,10.576266572265624,11.54628,10.606576572265624,11.47204C10.636886572265624,11.3978,10.652276572265624,11.31831,10.651856572265626,11.23813C10.651856572265626,10.9,10.379986572265626,10.625,10.044356572265624,10.625L6.251236572265625,10.625C5.915611572265625,10.625,5.643111706265625,10.89938,5.643111706265625,11.23813Z" fill="#737F93" fill-opacity="1"/></g></g></svg>