<svg xmlns="http://www.w3.org/2000/svg" xmlns:xlink="http://www.w3.org/1999/xlink" fill="none" version="1.1" width="20" height="20" viewBox="0 0 20 20"><g style="mix-blend-mode:passthrough"><g style="mix-blend-mode:passthrough"></g><g style="mix-blend-mode:passthrough"><g style="mix-blend-mode:passthrough"><path d="M3.24097,7.04085L4.9338,3.3408100000000003L4.93402,3.3403400000000003Q4.95259,3.3,4.97283,3.3L10,3.3L14.5874,3.3Q15.0038,3.3,15.1574,3.68221L16.485,6.98485L17.1872,8.731729999999999Q17.4338,9.34524,17.1556,9.95847Q16.8782,10.57011,16.2645,10.79327Q15.646,11.01817,15.0435,10.74228Q14.4439,10.4677,14.2168,9.85816L14.1006,9.54616Q14.0661,9.45353,14.0179,9.36719Q13.9698,9.280850000000001,13.9092,9.20278Q13.8486,9.12471,13.7769,9.05669Q13.7052,8.988679999999999,13.624,8.93229Q13.5428,8.875910000000001,13.454,8.83244Q13.3653,8.788979999999999,13.2709,8.75943Q13.1766,8.729890000000001,13.0789,8.71494Q12.9812,8.7,12.8824,8.7Q12.8185,8.7,12.7549,8.70626Q12.6914,8.71252,12.6287,8.72498Q12.5661,8.73744,12.505,8.755980000000001Q12.4439,8.774519999999999,12.3849,8.798960000000001Q12.3259,8.8234,12.2695,8.8535Q12.2132,8.883610000000001,12.1601,8.91909Q12.107,8.95457,12.0576,8.995090000000001Q12.0083,9.035599999999999,11.9631,9.08076Q11.918,9.12592,11.8774,9.17529Q11.8369,9.22466,11.8014,9.27776Q11.766,9.330860000000001,11.7359,9.38718Q11.7057,9.44351,11.6813,9.502510000000001Q11.6569,9.56151,11.6383,9.622630000000001Q11.6198,9.68374,11.6073,9.74638Q11.5949,9.80902,11.5886,9.87258Q11.5824,9.93614,11.5824,10L11.5824,10.05453Q11.5824,10.72998,11.0952,11.21809Q10.6143,11.7,9.96324,11.7Q9.27859,11.7,8.7879,11.21336Q8.3,10.72949,8.3,10.05453L8.3,10Q8.3,9.89831,8.28419,9.79785Q8.26837,9.6974,8.23713,9.60062Q8.20589,9.50385,8.15998,9.41311Q8.11407,9.32237,8.05461,9.23987Q7.99515,9.15738,7.92359,9.08513Q7.85202,9.01288,7.77009,8.952639999999999Q7.68816,8.8924,7.59786,8.84563Q7.50756,8.79887,7.41109,8.76671Q7.3505,8.74651,7.28823,8.73235Q7.22595,8.71819,7.16259,8.71021Q7.09922,8.70222,7.03538,8.700479999999999Q6.97154,8.69874,6.90784,8.70327Q6.84413,8.707799999999999,6.78118,8.71855Q6.71823,8.7293,6.65663,8.74617Q6.59503,8.76304,6.53539,8.78586Q6.47574,8.80869,6.41862,8.837250000000001Q6.36149,8.86581,6.30745,8.89983Q6.2534,8.93385,6.20294,8.97301Q6.15249,9.012170000000001,6.10612,9.05608Q6.05975,9.1,6.0179,9.148240000000001Q5.97606,9.19649,5.93915,9.24861Q5.90223,9.30072,5.87061,9.35621Q5.83898,9.41169,5.81294,9.47001Q5.78691,9.52832,5.76671,9.58891L5.7134,9.748840000000001Q5.48991,10.41933,4.86821,10.73397Q4.25061,11.04655,3.591,10.82668Q2.87237,10.58714,2.56552,9.88544Q2.25959,9.185870000000001,2.57252,8.5019L3.24097,7.04085ZM4.78664,2.0133137C4.84768,2.00452656,4.90986,2,4.97283,2L14.5874,2C15.3629,2,16.0744,2.477871,16.3636,3.1973599999999998L18.3934,8.24688C19.0024,9.76209,18.2022,11.47192,16.7087,12.015C15.7321,12.3701,14.6805,12.1671,13.9156,11.56688C13.5129,11.25086,13.1896,10.82473,12.9986,10.312L12.8824,10L12.8824,10.05453C12.8824,10.6997,12.6711,11.29703,12.3175,11.78274C11.7807,12.5199,10.9158,13,9.96324,13C8.98301,13,8.10675,12.5189,7.56593,11.78042C7.21054,11.29513,7,10.69867,7,10.05453L7,10L6.94669,10.15994C6.75478,10.73567,6.40729,11.21526,5.96673,11.56579C5.20756,12.1698,4.17201,12.3907,3.1799,12.06C1.49169,11.49723,0.650015,9.57925,1.39037,7.96104L3.2108,3.9821L3.75165,2.7999549999999997C3.94544,2.376395,4.33512,2.0783082,4.78664,2.0133137Z" fill-rule="evenodd" fill="#737F93" fill-opacity="1"/></g><g style="mix-blend-mode:passthrough"><path d="M9.35,16.5L9.35,15Q9.35,14.9359806,9.36249,14.873191Q9.374979,14.810402,9.399478,14.751256Q9.423978,14.69211,9.459545,14.638879Q9.495112,14.585649,9.540381,14.540381Q9.585649,14.495112,9.638879,14.459545Q9.69211,14.423978,9.751256,14.399478Q9.810402,14.374979,9.873191,14.36249Q9.9359806,14.35,10,14.35Q10.0640194,14.35,10.126809,14.36249Q10.189598,14.374979,10.248744,14.399478Q10.30789,14.423978,10.361121,14.459545Q10.414351,14.495112,10.459619,14.540381Q10.504888,14.585649,10.540455,14.638879Q10.576022,14.69211,10.600522,14.751256Q10.625021,14.810402,10.63751,14.873191Q10.65,14.9359806,10.65,15L10.65,16.5Q10.65,16.56402,10.63751,16.62681Q10.625021,16.6896,10.600522,16.74874Q10.576022,16.80789,10.540455,16.86112Q10.504888,16.91435,10.459619,16.95962Q10.414351,17.00489,10.361121,17.04046Q10.30789,17.07602,10.248744,17.10052Q10.189598,17.12502,10.126809,17.13751Q10.0640194,17.15,10,17.15Q9.9359806,17.15,9.873191,17.13751Q9.810402,17.12502,9.751256,17.10052Q9.69211,17.07602,9.638879,17.04046Q9.585649,17.00489,9.540381,16.95962Q9.495112,16.91435,9.459545,16.86112Q9.423978,16.80789,9.399478,16.74874Q9.374979,16.6896,9.36249,16.62681Q9.35,16.56402,9.35,16.5ZM10.65,16.5Q10.65,16.56402,10.63751,16.62681Q10.625021,16.6896,10.600522,16.74874Q10.576022,16.80789,10.540455,16.86112Q10.504888,16.91435,10.459619,16.95962Q10.414351,17.00489,10.361121,17.04046Q10.30789,17.07602,10.248744,17.10052Q10.189598,17.12502,10.126809,17.13751Q10.0640194,17.15,10,17.15Q9.9359806,17.15,9.873191,17.13751Q9.810402,17.12502,9.751256,17.10052Q9.69211,17.07602,9.638879,17.04046Q9.585649,17.00489,9.540381,16.95962Q9.495112,16.91435,9.459545,16.86112Q9.423978,16.80789,9.399478,16.74874Q9.374979,16.6896,9.36249,16.62681Q9.35,16.56402,9.35,16.5Q9.35,16.43598,9.36249,16.37319Q9.374979,16.3104,9.399478,16.25126Q9.423978,16.19211,9.459545,16.13888Q9.495112,16.08565,9.540381,16.04038Q9.585649,15.995112,9.638879,15.959545Q9.69211,15.923977,9.751256,15.899478Q9.810402,15.874979,9.873191,15.86249Q9.9359806,15.85,10,15.85Q10.0640194,15.85,10.126809,15.86249Q10.189598,15.874979,10.248744,15.899478Q10.30789,15.923977,10.361121,15.959545Q10.414351,15.995112,10.459619,16.04038Q10.504888,16.08565,10.540455,16.13888Q10.576022,16.19211,10.600522,16.25126Q10.625021,16.3104,10.63751,16.37319Q10.65,16.43598,10.65,16.5ZM10.65,15Q10.65,15.0640194,10.63751,15.126809Q10.625021,15.189598,10.600522,15.248744Q10.576022,15.30789,10.540455,15.361121Q10.504888,15.414351,10.459619,15.459619Q10.414351,15.504888,10.361121,15.540455Q10.30789,15.576022,10.248744,15.600522Q10.189598,15.625021,10.126809,15.63751Q10.0640194,15.65,10,15.65Q9.9359806,15.65,9.873191,15.63751Q9.810402,15.625021,9.751256,15.600522Q9.69211,15.576022,9.638879,15.540455Q9.585649,15.504888,9.540381,15.459619Q9.495112,15.414351,9.459545,15.361121Q9.423978,15.30789,9.399478,15.248744Q9.374979,15.189598,9.36249,15.126809Q9.35,15.0640194,9.35,15Q9.35,14.9359806,9.36249,14.873191Q9.374979,14.810402,9.399478,14.751256Q9.423978,14.69211,9.459545,14.638879Q9.495112,14.585649,9.540381,14.540381Q9.585649,14.495112,9.638879,14.459545Q9.69211,14.423978,9.751256,14.399478Q9.810402,14.374979,9.873191,14.36249Q9.9359806,14.35,10,14.35Q10.0640194,14.35,10.126809,14.36249Q10.189598,14.374979,10.248744,14.399478Q10.30789,14.423978,10.361121,14.459545Q10.414351,14.495112,10.459619,14.540381Q10.504888,14.585649,10.540455,14.638879Q10.576022,14.69211,10.600522,14.751256Q10.625021,14.810402,10.63751,14.873191Q10.65,14.9359806,10.65,15Z" fill="#737F93" fill-opacity="1"/></g><g style="mix-blend-mode:passthrough"><path d="M4.8,11.5L4.8,14.52121Q4.8,15.64006,5.57951,16.42012Q6.35882,17.2,7.47673,17.2L12.52327,17.2Q13.6311,17.2,14.4135,16.404980000000002Q15.2,15.60571,15.2,14.47675L15.2,11.5L16.5,11.5L16.5,14.47675C16.5,16.68589,14.7324,18.5,12.52327,18.5L7.47673,18.5C5.26759,18.5,3.5,16.73035,3.5,14.52121L3.5,11.5L4.8,11.5Z" fill-rule="evenodd" fill="#737F93" fill-opacity="1"/></g></g></g></svg>