<svg width="20" height="20" viewBox="0 0 20 20" fill="none" xmlns="http://www.w3.org/2000/svg">
<g id="Group 25">
<g id="Group 24">
<path id="Vector" d="M15.6327 10.4068L15.5964 10.7692L15.8867 10.9893L17.2404 12.0161C17.3487 12.1003 17.3848 12.2425 17.3125 12.3798L15.7912 14.9551L15.7827 14.9695L15.7749 14.9843C15.7469 15.0379 15.6621 15.1071 15.5228 15.1071C15.4658 15.1071 15.4334 15.1004 15.411 15.0923L13.8031 14.4658L13.4923 14.3447L13.2127 14.5266C12.9439 14.7014 12.703 14.8398 12.4579 14.9502L12.1333 15.0964L12.0817 15.4487L11.8396 17.1019C11.818 17.233 11.6987 17.35 11.5257 17.35H8.47067C8.29446 17.35 8.17338 17.2188 8.15919 17.1051L8.15829 17.0979L8.15722 17.0907L7.91454 15.4479L7.86258 15.0962L7.53841 14.9502C7.28529 14.8362 7.03369 14.6975 6.79647 14.5351L6.51318 14.3411L6.19326 14.4658L4.58476 15.0925C4.55641 15.103 4.53536 15.1071 4.48777 15.1071C4.37323 15.1071 4.26299 15.042 4.20996 14.9491L4.21003 14.9491L4.2049 14.9404L2.69553 12.3898C2.60991 12.2347 2.65264 12.0965 2.75585 12.0161L4.10967 10.9893L4.42257 10.752L4.35805 10.3646C4.33949 10.2532 4.33833 10.1466 4.33833 10C4.33833 9.89764 4.34801 9.78174 4.36182 9.61634C4.36274 9.60529 4.36368 9.59402 4.36464 9.58251L4.39428 9.22653L4.10967 9.01067L2.75589 7.98393C2.64685 7.8989 2.61829 7.73777 2.688 7.62288L2.68803 7.62289L2.69113 7.61768L4.21862 5.04625L4.22755 5.03122L4.23566 5.01572C4.26373 4.96209 4.34851 4.89286 4.48777 4.89286C4.54479 4.89286 4.57722 4.89964 4.59956 4.90766L6.20754 5.53422L6.51833 5.65532L6.79795 5.47345C7.06668 5.29865 7.30761 5.16018 7.55269 5.04982L7.8806 4.90216L7.9297 4.5459L8.15708 2.89624C8.17949 2.76582 8.2985 2.65 8.47067 2.65H11.5257C11.6938 2.65 11.8164 2.76196 11.8393 2.91083C11.8394 2.91108 11.8394 2.91134 11.8394 2.91159L12.0818 4.55213L12.1337 4.90384L12.4579 5.04982C12.711 5.1638 12.9626 5.30248 13.1998 5.4649L13.4831 5.65887L13.8031 5.53422L15.4116 4.90745C15.4399 4.89704 15.461 4.89286 15.5086 4.89286C15.6231 4.89286 15.7333 4.95803 15.7864 5.05089L15.7863 5.05093L15.7914 5.0596L17.3008 7.61024C17.3864 7.76528 17.3437 7.90355 17.2405 7.98389L15.8867 9.01067L15.5964 9.23078L15.6327 9.5932C15.6467 9.7332 15.658 9.86308 15.658 10C15.658 10.1369 15.6467 10.2668 15.6327 10.4068Z" stroke="#737F93" stroke-width="1.3"/>
<path id="Vector_2" d="M12.7743 9.99439C12.7743 11.5198 11.5236 12.7705 9.99817 12.7705C8.47278 12.7705 7.22202 11.5198 7.22202 9.99439C7.22202 8.46899 8.47277 7.21824 9.99817 7.21824C11.5236 7.21824 12.7743 8.46899 12.7743 9.99439Z" stroke="#737F93" stroke-width="1.3"/>
</g>
</g>
</svg>
