<svg width="20" height="20" viewBox="0 0 20 20" fill="none" xmlns="http://www.w3.org/2000/svg">
<g id="Group 44">
<g id="Group 17">
<g id="Group 16">
<g id="Group 23">
<circle id="Ellipse 5" cx="10.5" cy="10.5" r="7.85" stroke="#737F93" stroke-width="1.3"/>
</g>
</g>
</g>
<path id="Vector" d="M7.08633 13.0662C7.13169 13.1505 7.19334 13.225 7.2677 13.2853C8.17615 14.0419 9.32145 14.4556 10.5037 14.4539C11.6857 14.4555 12.8307 14.0421 13.739 13.2858C13.8121 13.2251 13.8725 13.1505 13.9167 13.0664C13.961 12.9824 13.9882 12.8904 13.997 12.7958C14.0057 12.7012 13.9957 12.6058 13.9675 12.515C13.9393 12.4243 13.8936 12.34 13.8328 12.2669C13.7721 12.1939 13.6976 12.1335 13.6135 12.0892C13.5294 12.045 13.4374 12.0177 13.3428 12.009C13.2482 12.0003 13.1528 12.0103 13.0621 12.0385C12.9713 12.0666 12.887 12.1124 12.814 12.1731C12.1694 12.7092 11.3603 13.007 10.5037 13.007C9.65941 13.0087 8.84139 12.7134 8.19276 12.1729C8.11989 12.1108 8.03542 12.0637 7.94424 12.0345C7.85306 12.0053 7.75699 11.9945 7.66159 12.0026C7.5662 12.0108 7.47337 12.0379 7.38851 12.0822C7.30364 12.1265 7.22842 12.1873 7.1672 12.2609C7.10598 12.3345 7.05998 12.4196 7.03188 12.5111C7.00377 12.6026 6.99411 12.6988 7.00346 12.7941C7.01281 12.8894 7.04098 12.9819 7.08633 13.0662Z" fill="#737F93"/>
</g>
</svg>
