<svg xmlns="http://www.w3.org/2000/svg" fill="none" viewBox="0 0 24 25" class="design-iconfont"><path d="M13 17.21a2 2 0 10-2 0v1.768a1 1 0 102 0v-1.767z" fill="#FAA21E"/><path fill-rule="evenodd" clip-rule="evenodd" d="M6.6 7.478a5.4 5.4 0 1110.8 0v2.107c.31.005.59.016.844.037.556.045 1.058.142 1.526.381a3.9 3.9 0 011.705 1.705c.239.469.336.97.381 1.526.044.537.044 1.198.044 2.006v2.476c0 .808 0 1.469-.044 2.006-.045.556-.142 1.058-.381 1.527a3.9 3.9 0 01-1.705 1.704c-.468.239-.97.336-1.526.381-.537.044-1.198.044-2.006.044H7.762c-.808 0-1.469 0-2.006-.044-.556-.045-1.058-.142-1.527-.38a3.9 3.9 0 01-1.704-1.705c-.239-.47-.336-.971-.381-1.527-.044-.537-.044-1.198-.044-2.006V15.24c0-.808 0-1.469.044-2.006.045-.556.142-1.057.381-1.526a3.9 3.9 0 011.704-1.705c.47-.239.971-.336 1.527-.381.253-.02.534-.032.844-.037V7.478zm9 0v2.1H8.4v-2.1a3.6 3.6 0 017.2 0zm-9.697 3.938c-.445.036-.684.103-.856.191a2.1 2.1 0 00-.918.918c-.088.173-.155.411-.191.856-.037.455-.038 1.042-.038 1.897v2.4c0 .855 0 1.442.038 1.897.036.445.103.684.19.857a2.1 2.1 0 00.919.917c.172.088.411.155.856.191.455.037 1.042.038 1.897.038h8.4c.855 0 1.442 0 1.897-.038.445-.036.683-.103.856-.19a2.1 2.1 0 00.918-.919c.088-.172.155-.411.191-.856.037-.455.038-1.042.038-1.897v-2.4c0-.855 0-1.442-.038-1.897-.036-.445-.103-.683-.19-.856a2.1 2.1 0 00-.919-.918c-.172-.088-.411-.155-.856-.191-.455-.037-1.042-.038-1.897-.038H7.8c-.855 0-1.442 0-1.897.038z" fill="#FAA21E"/></svg>