<svg width="21" height="21" fill="none" xmlns="http://www.w3.org/2000/svg"><g clip-path="url(#clip0_286:15634)"><path d="M20.296.5H.704v19.592h19.592V.5z" fill="#fff" fill-opacity=".01"/><path d="M7.641 3.637c.297 0 .57.16.714.42l.999 1.799c.13.235.136.52.016.76l-.962 1.925s.279 1.433 1.445 2.6c1.167 1.166 2.596 1.44 2.596 1.44l1.923-.961a.816.816 0 01.762.016l1.804 1.003c.259.144.42.417.42.713v2.071c0 1.055-.98 1.817-1.98 1.48-2.052-.693-5.237-2.011-7.256-4.03-2.02-2.02-3.338-5.205-4.03-7.258-.337-.999.424-1.978 1.479-1.978h2.07z" fill="#F75E20" stroke="#2C2B3B" stroke-width="1.959" stroke-linejoin="round"/></g><defs><clipPath id="clip0_286:15634"><path fill="#fff" transform="translate(.5 .5)" d="M0 0h20v20H0z"/></clipPath></defs></svg>